<?xml version="1.0" encoding="utf-8"?>
<!-- Generator: Adobe Illustrator 23.1.0, SVG Export Plug-In . SVG Version: 6.00 Build 0)  -->
<svg version="1.1" id="Layer_1" xmlns="http://www.w3.org/2000/svg" xmlns:xlink="http://www.w3.org/1999/xlink" x="0px" y="0px"
	 viewBox="0 0 398.5 398.5" style="enable-background:new 0 0 398.5 398.5;" xml:space="preserve">
<style type="text/css">
	.st0{fill:#4D3D2D;}
	.st1{fill:#F7C9A9;}
	.st2{fill:#FFD7B0;}
	.st3{fill:#65513C;}
	.st4{fill:#333E48;}
	.st5{fill:#A6A5AB;}
	.st6{fill:#7F7F80;}
	.st7{fill:#FFCE00;}
	.st8{fill:#FFDF43;}
	.st9{fill:#CE9800;}
	.st10{fill:#66C7F7;}
	.st11{fill:#46A1CE;}
	.st12{fill:#444242;}
	.st13{fill:#5B5B5F;}
</style>
<g>
	<g>
		<path class="st0" d="M182.9,361.4h-42c-27.7,0-50.2-22.5-50.2-50.2v-27.3c0-11.8-9.6-21.4-21.4-21.4s-21.4,9.6-21.4,21.4
			c0,5.1-4.1,9.2-9.2,9.2s-9.2-4.1-9.2-9.2c0-21.9,17.8-39.7,39.7-39.7s39.7,17.8,39.7,39.7v27.3c0,17.6,14.3,31.9,31.9,31.9h42
			c5.1,0,9.2,4.1,9.2,9.2C192.1,357.3,188,361.4,182.9,361.4z"/>
		<path class="st1" d="M313.3,363.3c4.7,0,8.6,3.8,8.6,8.5s-3.8,8.6-8.6,8.6h-26.5c-4.7,0-8.6-3.8-8.6-8.6c0-4.7,3.8-8.5,8.6-8.5
			H313.3z"/>
		<path class="st0" d="M250,293.4c-24,0-43.5,19.5-43.5,43.5s19.5,43.5,43.5,43.5h43.5v-43.5C293.5,312.9,274,293.4,250,293.4z"/>
		<g>
			<path class="st2" d="M252,137.3c0.1-6.9,5.7-12.5,12.6-12.4l21.3,0.2c6.9,0.1,12.5,5.7,12.4,12.6s-5.7,12.5-12.6,12.4l-21.3-0.2
				C257.5,149.8,251.9,144.2,252,137.3z"/>
			<path class="st0" d="M285.6,150l0.2-25c37.6,0.3,67.9,31.1,67.6,68.6c-0.3,37.6-31.1,67.9-68.6,67.6l-28.6-0.2
				c-6.9-0.1-12.5-5.7-12.4-12.6c0.1-6.9,5.7-12.5,12.6-12.4l28.6,0.2c23.8,0.2,43.2-19,43.4-42.8
				C328.6,169.7,309.4,150.2,285.6,150L285.6,150z"/>
		</g>
		<path class="st3" d="M143.4,281.9c0-34.3,27.8-62.1,62.1-62.1s62.1,27.8,62.1,62.1v36.5c0,34.3-27.8,62.1-62.1,62.1
			s-62.1-27.8-62.1-62.1V281.9z"/>
		<g>
			<path class="st2" d="M239.2,363.3c4.7,0,8.6,3.8,8.6,8.5s-3.8,8.6-8.6,8.6h-26.5c-4.7,0-8.6-3.8-8.6-8.6c0-4.7,3.8-8.5,8.6-8.5
				H239.2z"/>
			<path class="st3" d="M175.9,293.4c-24,0-43.5,19.5-43.5,43.5s19.5,43.5,43.5,43.5h43.5v-43.5C219.4,312.9,200,293.4,175.9,293.4z
				"/>
		</g>
		<g>
			<path class="st3" d="M238.5,125.3c33,0,59.8,29.7,59.8,66.4s-26.8,66.4-59.8,66.4h-33.3c-33,0-59.8-29.7-59.8-66.4
				s26.8-66.4,59.8-66.4C205.2,125.3,238.5,125.3,238.5,125.3z"/>
			<path class="st2" d="M296.1,213.5c2.4-6.8,3.7-14.1,3.7-21.8c0-9.1-1.8-17.8-5.1-25.7c-5.2-3.9-11.2-6.8-17.7-8.5
				c-8.2,2.6-15,8.3-19,15.7c-5.2-9.5-14.9-16.1-26.2-17.2c-26.4,2-47.2,24-47.2,50.9c0,27.5,21.7,49.8,48.8,51
				c0.6,0.1,1.3,0.1,2,0.1h40.3c14.9,0,27-12.1,27-27C302.7,224.4,300.2,218.2,296.1,213.5z"/>
			<circle class="st4" cx="216.9" cy="191.3" r="5.6"/>
			<circle class="st4" cx="283" cy="191.3" r="5.6"/>
			<path class="st4" d="M248.7,214.5c-0.5,0-1.1-0.2-1.5-0.6l-3.4-3.4c-0.8-0.8-0.8-2.1,0-2.9c0.8-0.8,2.1-0.8,2.9,0l3.4,3.4
				c0.8,0.8,0.8,2.1,0,2.9C249.8,214.3,249.3,214.5,248.7,214.5z"/>
			<path class="st4" d="M264.9,214.5c-0.5,0-1.1-0.2-1.5-0.6c-0.8-0.8-0.8-2.1,0-2.9l3.4-3.4c0.8-0.8,2.1-0.8,2.9,0s0.8,2.1,0,2.9
				l-3.4,3.4C265.9,214.3,265.4,214.5,264.9,214.5z"/>
			<g>
				<path class="st3" d="M161.2,166.8c-13.8,0-24.9,11.2-24.9,24.9c0,13.8,11.2,24.9,24.9,24.9V166.8z"/>
				<path class="st2" d="M161.2,176.4c-8.5,0-15.3,6.9-15.3,15.3c0,8.5,6.9,15.3,15.3,15.3V176.4z"/>
			</g>
		</g>
	</g>
</g>
<g>
	<g>
		<polygon class="st5" points="167.1,33 304.2,33 304.2,64.9 294.1,64.9 294.1,43.1 177.2,43.1 177.2,64.9 167.1,64.9 		"/>
		<polygon class="st6" points="167.1,33 235.7,33 235.5,43.1 177.2,43.1 177.2,64.9 167.1,64.9 		"/>
		<rect x="230.6" y="52.8" class="st7" width="10.1" height="10.6"/>
		<rect x="247.7" y="52.8" class="st8" width="10.1" height="10.6"/>
		<rect x="213.5" y="52.8" class="st9" width="10.1" height="10.6"/>
		<path class="st10" d="M158,59.9h155.3v90.9H158V59.9z"/>
		<path class="st11" d="M158,59.9h77.6v90.9H158V59.9z"/>
		<path class="st12" d="M171.2,108.7c0-14.1,11.5-25.6,25.6-25.6s25.6,11.5,25.6,25.6s-11.5,25.6-25.6,25.6S171.2,122.8,171.2,108.7
			z"/>
		<path class="st13" d="M274.5,134.3c-14.1,0-25.6-11.5-25.6-25.6S260.3,83,274.5,83s25.6,11.5,25.6,25.6S288.6,134.3,274.5,134.3z"
			/>
		<rect x="218.6" y="71.2" class="st7" width="34.1" height="10.1"/>
		<rect x="218.6" y="71.2" class="st9" width="17.1" height="10.1"/>
	</g>
</g>
<g id="Layer_3">
	<g>
		<path class="st2" d="M163.9,154.7h-20.5c-6.7,0-12.1-5.4-12.1-12.1c0-6.7,5.4-12.1,12.1-12.1h20.5c6.7,0,12.1,5.4,12.1,12.1
			C175.9,149.3,170.5,154.7,163.9,154.7z"/>
		<path class="st3" d="M143.4,154.7c-22.9,0-41.5,18.6-41.5,41.5s18.6,41.5,41.5,41.5h27.5c6.7,0,12.1,5.4,12.1,12.1
			c0,6.7-5.4,12.1-12.1,12.1h-27.5c-36.2,0-65.6-29.4-65.6-65.6s29.4-65.6,65.6-65.6V154.7z"/>
	</g>
</g>
</svg>
